<?xml version="1.0" encoding="utf-8"?>
<!-- Svg Vector Icons : http://www.onlinewebfonts.com/icon -->
<!DOCTYPE svg PUBLIC "-//W3C//DTD SVG 1.1//EN" "http://www.w3.org/Graphics/SVG/1.1/DTD/svg11.dtd">
<svg version="1.1" xmlns="http://www.w3.org/2000/svg" xmlns:xlink="http://www.w3.org/1999/xlink" x="0px" y="0px" viewBox="0 0 1000 1000" enable-background="new 0 0 1000 1000" xml:space="preserve">
<metadata> Svg Vector Icons : http://www.onlinewebfonts.com/icon </metadata>
<g><g transform="translate(0.000000,512.000000) scale(0.100000,-0.100000)"><path d="M1974.7,5082.9c-931.5-148.4-1704.8-929.6-1845.4-1865C103.9,3063.7,100,2567.7,100,206.7c0-1904,5.9-2874.6,21.5-2976.1c115.2-830,718.6-1558.4,1511.5-1820.1c326.1-109.4,298.8-107.4,1865-115.2c800.7-3.9,1484.2-1.9,1521.3,3.9c148.4,27.3,207,185.5,111.3,296.8l-46.9,54.7l-1550.6,9.8c-1527.1,11.7-1550.6,11.7-1704.8,54.7c-654.2,181.6-1132.7,664-1310.4,1322.1C482.8-2832,480.8-2707,480.8,210.6v3036.7l44.9,154.3c185.5,644.4,640.5,1099.5,1285,1285l154.3,44.9h3036.7h3036.7l154.3-44.9c638.6-185.5,1087.7-630.8,1285-1275.2c43-144.5,43-154.3,54.7-1710.7l9.8-1564.2l44.9-48.8c87.9-93.7,248-72.3,294.9,39.1c17.6,43,21.5,412,15.6,1570.1c-5.8,1314.3-11.7,1529.1-39.1,1640.4c-228.5,931.5-947.1,1609.1-1849.4,1745.8C7743.5,5124,2230.6,5122,1974.7,5082.9z"/><path d="M3619,3799.9c-33.2-25.4-300.7-326.1-591.7-669.8c-291-343.7-540.9-636.6-556.6-652.2c-21.5-23.4-82,15.6-394.5,248c-412.1,308.6-457,328.1-558.5,226.5c-56.6-56.6-68.3-168-25.4-224.6c13.7-15.6,224.6-181.6,470.6-365.2c486.3-365.2,523.4-382.8,624.9-291c27.3,23.4,330,373,675.7,775.3c601.5,705,624.9,736.2,624.9,814.3c0,66.4-9.8,89.8-60.5,130.8C3753.8,3854.6,3697.2,3856.6,3619,3799.9z"/><path d="M4876.7,2874.3c-37.1-37.1-50.8-72.3-50.8-125c0-52.7,13.7-87.9,50.8-125l52.7-50.8h1697c1179.5,0,1708.7,5.8,1738,21.5c21.5,11.7,50.8,50.8,66.4,87.9c23.4,56.6,23.4,76.2,0,132.8c-15.6,37.1-44.9,76.2-66.4,87.9c-29.3,15.6-558.5,21.5-1738,21.5h-1697L4876.7,2874.3z"/><path d="M3601.5,1245.6c-23.4-21.5-291-328.1-593.7-683.5c-316.4-371-562.4-642.5-576.1-636.6c-11.7,3.9-183.6,128.9-376.9,273.4c-396.4,296.8-429.6,308.5-531.2,209c-58.6-60.6-74.2-146.5-37.1-214.8c9.8-19.5,220.7-187.5,466.7-373c380.8-283.2,460.9-335.9,517.5-335.9c37.1,0,78.1,5.9,89.8,13.7c11.7,7.8,316.4,355.4,675.7,775.3c619,722.5,652.3,763.6,652.3,837.8c0,105.4-66.4,173.8-171.9,173.8C3669.8,1284.6,3626.9,1271,3601.5,1245.6z"/><path d="M4882.5,329.7C4773.2,218.4,4827.9,54.3,4984.1,25c37.1-5.9,806.5-7.8,1710.7-5.9L8337.1,25l48.8,44.9c27.4,25.4,52.7,70.3,58.6,97.6c13.7,70.3-35.1,168-95.7,197.3c-35.2,15.6-513.6,21.5-1728.3,21.5H4939.2L4882.5,329.7z"/><path d="M7337.3-562.8c-697.1-136.7-1277.2-593.7-1585.7-1247.9C5177.4-3023.3,5882.4-4464.6,7224-4821.9c164-44.9,230.4-50.8,492.1-50.8c246.1-2,333.9,5.8,474.5,41c1230.3,304.7,1964.6,1533,1622.8,2712.5c-103.5,355.4-265.6,632.7-540.9,917.8C8944.5-861.5,8550-646.7,8100.8-560.8C7911.4-525.7,7522.8-525.7,7337.3-562.8z M8182.9-941.6c636.6-154.3,1124.8-640.5,1302.5-1300.6c29.3-109.4,37.1-201.1,35.2-476.5c0-314.4-5.9-355.4-52.7-513.6c-185.5-607.3-617.1-1037-1218.6-1216.6c-210.9-62.5-605.4-85.9-837.8-46.9c-511.7,82-992.1,404.2-1244,833.9c-175.8,304.6-251.9,591.7-251.9,962.8c-1.9,490.2,160.1,908.1,480.4,1244c289,306.6,632.7,484.3,1062.3,552.7C7626.3-875.2,7995.4-896.7,8182.9-941.6z"/><path d="M7640-1457.2c-93.7-52.7-97.6-80.1-99.6-701.1c0-630.8,5.8-665.9,107.4-712.8c35.1-15.6,216.8-23.4,607.3-23.4c589.8,0,664,9.8,708.9,93.7c29.3,52.7,25.4,162.1-3.9,201.2c-52.7,70.3-101.6,76.2-578.1,76.2h-470.6v457c0,496-9.8,562.4-99.6,607.3C7745.4-1424,7700.5-1424,7640-1457.2z"/><path d="M3650.3-1443.5c-17.6-3.9-285.1-304.6-593.7-665.9c-308.5-361.3-572.2-669.8-585.9-685.5c-21.5-23.4-84,15.6-394.5,248c-412.1,308.6-457,328.1-558.5,226.5c-56.6-56.6-68.3-167.9-25.4-224.6c13.7-15.6,224.6-181.6,470.6-365.2c486.3-365.2,523.4-382.8,624.9-291c27.3,23.4,330,373,673.7,775.3c605.4,706.9,626.9,734.3,626.9,814.3c0,66.4-9.8,89.8-60.5,130.8C3771.4-1431.8,3726.4-1424,3650.3-1443.5z"/></g></g>
</svg>